<svg width="698" height="291" viewBox="0 0 698 291" fill="none" xmlns="http://www.w3.org/2000/svg">
<path d="M493.393 229.151V200.988L617.642 4.39941H638.074V48.0245H624.268L530.392 196.571V198.78H697.713V229.151H493.393ZM626.477 287.134V220.592V207.477V4.39941H659.058V287.134H626.477Z" fill="#4B5458" fill-opacity="0.5"/>
<path d="M349.265 291C328.465 291 310.748 285.34 296.114 274.019C281.481 262.607 270.298 246.086 262.567 224.458C254.836 202.737 250.971 176.507 250.971 145.767C250.971 115.211 254.836 89.1189 262.567 67.4904C270.39 45.7699 281.619 29.2034 296.252 17.7909C310.978 6.28643 328.649 0.53418 349.265 0.53418C369.881 0.53418 387.506 6.28643 402.14 17.7909C416.866 29.2034 428.094 45.7699 435.825 67.4904C443.648 89.1189 447.56 115.211 447.56 145.767C447.56 176.507 443.694 202.737 435.963 224.458C428.232 246.086 417.05 262.607 402.416 274.019C387.782 285.34 370.065 291 349.265 291ZM349.265 260.628C369.881 260.628 385.896 250.688 397.308 230.808C408.721 210.929 414.427 182.582 414.427 145.767C414.427 121.285 411.804 100.439 406.558 83.2286C401.404 66.0178 393.949 52.9027 384.193 43.8832C374.529 34.8636 362.887 30.3539 349.265 30.3539C328.833 30.3539 312.865 40.4318 301.36 60.5877C289.856 80.6516 284.104 109.045 284.104 145.767C284.104 170.249 286.681 191.049 291.835 208.168C296.989 225.286 304.398 238.309 314.061 247.237C323.817 256.164 335.552 260.628 349.265 260.628Z" fill="#4B5458" fill-opacity="0.5"/>
<path d="M0.988525 229.151V200.988L125.237 4.39941H145.669V48.0245H131.864L37.987 196.571V198.78H205.309V229.151H0.988525ZM134.073 287.134V220.592V207.477V4.39941H166.653V287.134H134.073Z" fill="#4B5458" fill-opacity="0.5"/>
</svg>
